/* XPM */
static char *B1714051250[] = {
/* columns rows colors chars-per-pixel */
"32 32 31 1 ",
"  c #EED2A3",
". c #EDD0A4",
"X c #EED1A5",
"o c #EDD2A5",
"O c #EED1A7",
"+ c #EFD2A6",
"@ c #EFD6AE",
"# c #F1D5AE",
"$ c #F0D6B1",
"% c #F2D6B1",
"& c #F2DBBC",
"* c #F3DCBD",
"= c #F4DDBD",
"- c #F4DDBE",
"; c #F3E1C9",
": c #F3E2C8",
"> c #F3E3CA",
", c #F4E2CA",
"< c #F2E4CA",
"1 c #F4E4CB",
"2 c #F2E3CC",
"3 c #F3E3CC",
"4 c #F3E2CE",
"5 c #F4E4CD",
"6 c #F5E6D1",
"7 c #F7E6D2",
"8 c #F6E7D2",
"9 c #F7E6D4",
"0 c #F9EDDF",
"q c #F7EFE2",
"w c #F9EDE1",
/* pixels */
"w6<,11><11,<,<11,<,<11,<,<1,:160",
"6&$#$$$$$$$$$$$$$$$$$$$$$$$$#$=7",
"<$...+..+.+...+.+...+.+...++..$3",
",#.O+.+..+.+.+.+.+.+.+.+.+.+#.$3",
"<%.+. .++.+.+.+.+.+.+.+.. +. .$5",
"5%+. ++..+.+.+.+.+.+.+.+.#.+ .$5",
"<$.+.+.++.+.+.+.+.+.+.+..++.O.$,",
"<$+.+.+..+.+.+.+.+.+.+.+. .+..$3",
"<$..+.+.+.+.+.+..+.+.+.++.+.+.$5",
",$+..+.+.+.+.+.++.+.+.+..+.+.+$5",
"<%.++.+.+.+.+.+..+.+.+.++.+...$,",
"<%+..+.+.+.+.+.++.+.+.+..+.++.$3",
"<$..+.+.+.+.+.+..+.+.+.+.+.+.+$5",
",$. .+.+.+.+.+.++.+.+.+.+.+.+.$5",
"<$.#+.+.+.+.+.+..+.+.+.+.+.+..$3",
",$...+.+.+.+.+.++.+.+.+.+.+.+.$3",
"1$.+.+.+.+.+.+.+.+.+.+.+.+.+.+$5",
",$+.+.+.+.+.+.+.+.+.+.+.+.+.+.$5",
"<$.+.+.+.+.+.+.+.+.+.+.+.+.+..$3",
",$+.+.+.+.+.+.+.+.+.+.+.+.+.+.$3",
"<$...+.+.+.+.+.+.+.+.+.+.+.+.+$5",
",$+.+.+.+.+.+.+.+.+.+.+.+.+.+.$5",
"<%.+.+.+.+.+.+.+.+.+.+.+.+.+..$3",
"<%+.+.+.+.+.+.+.+.+.+.+.+.+.+.$3",
"<$..+   .+.+.+.++.+.+.+.....+.$5",
",$...#. +.+.+.+..+.+.+.+.+. .+$5",
"<$. +......O.+.++.+.+.+.+.+#..$5",
",$# .+.+ # .+.+..+.+.+.+.+..+.$3",
",#..+.#........o+.+.....+....+#<",
",$+..+ .oo.O...o.+.+.o.O.+..+.$5",
"6=$$$$$$$$$$%%$$$$%%$$$$%%$$@$-6",
"w63>55,533555525555533555533>58q"
};
