/* XPM */
static const char *Vw__[] = {
/* columns rows colors chars-per-pixel */
"32 32 157 2 ",
"   c #000515",
".  c #000C16",
"X  c #020E1A",
"o  c #001017",
"O  c #021119",
"+  c #0D1319",
"@  c #14131A",
"#  c #1B161C",
"$  c #21171D",
"%  c #25191D",
"&  c #2B1B1E",
"*  c #33211F",
"=  c #39251E",
"-  c #161D25",
";  c #251821",
":  c #2C1B21",
">  c #331E22",
",  c #381F23",
"<  c #2D2121",
"1  c #342123",
"2  c #3B2225",
"3  c #3D2B27",
"4  c #332729",
"5  c #3F2528",
"6  c #33282A",
"7  c #3F2F2F",
"8  c #41291F",
"9  c #422526",
"0  c #442A23",
"q  c #492D24",
"w  c #442629",
"e  c #49262A",
"r  c #432929",
"t  c #4A2B2C",
"y  c #502D2B",
"u  c #4E312E",
"i  c #553426",
"p  c #5A3626",
"a  c #5B3825",
"s  c #52332E",
"d  c #5A3628",
"f  c #5E382D",
"g  c #473430",
"h  c #4E3433",
"j  c #553331",
"k  c #5A3733",
"l  c #5E3B36",
"z  c #5E3C39",
"x  c #653E2C",
"c  c #6A3F2E",
"v  c #623D36",
"b  c #693F31",
"n  c #623E39",
"m  c #5F403B",
"M  c #6B422D",
"N  c #70432E",
"B  c #794A2E",
"V  c #6F4537",
"C  c #66413B",
"Z  c #6B443D",
"A  c #724433",
"S  c #7C4B32",
"D  c #72463D",
"F  c #73493C",
"G  c #7B4C3D",
"H  c #4A4B4F",
"J  c #584F52",
"K  c #555656",
"L  c #555658",
"P  c #5D5959",
"I  c #6C4641",
"U  c #6D4842",
"Y  c #724740",
"T  c #744C44",
"R  c #7A4E42",
"E  c #60575A",
"W  c #655A5A",
"Q  c #6B5D5B",
"!  c #72625D",
"~  c #7E635D",
"^  c #746161",
"/  c #7E6663",
"(  c gray45",
")  c #814E33",
"_  c #835033",
"`  c #895335",
"'  c #84523D",
"]  c #88553D",
"[  c #92573A",
"{  c #955B3D",
"}  c #9B5E3C",
"|  c #9D603D",
" . c #804F40",
".. c #855444",
"X. c #8C5642",
"o. c #8F5944",
"O. c #845649",
"+. c #935B42",
"@. c #995E42",
"#. c #9E6143",
"$. c #9A6048",
"%. c #8D6B5F",
"&. c #A36343",
"*. c #A96745",
"=. c #AD6A46",
"-. c #B26D45",
";. c #B26B46",
":. c #B36D49",
">. c #B57047",
",. c #806662",
"<. c #826965",
"1. c #8D6C65",
"2. c #936F61",
"3. c #9A7060",
"4. c #A17767",
"5. c #A77866",
"6. c #AD7D67",
"7. c #AA7A66",
"8. c #A37868",
"9. c #B17F66",
"0. c #B9826A",
"q. c #C1856B",
"w. c #939393",
"e. c #949492",
"r. c gray58",
"t. c #979596",
"y. c #9B9595",
"u. c #9A9795",
"i. c #9D9797",
"p. c #A19795",
"a. c #A19997",
"s. c #A19997",
"d. c #AB9C97",
"f. c #A59999",
"g. c #A69B99",
"h. c #A49A99",
"j. c #A79998",
"k. c #A99B9A",
"l. c #AB9B9B",
"z. c #A89A99",
"x. c #A89D9B",
"c. c #AA9C9B",
"v. c #AB9D9C",
"b. c #AA9C9B",
"n. c #B79E97",
"m. c #B4A29E",
"M. c #BFA29A",
"N. c #BCA39C",
"B. c #BEA39C",
"V. c #B3A7A7",
"C. c #C7A79A",
"Z. c #C3A59A",
"A. c #C8A69C",
"S. c #CDA99D",
"D. c #D2AB9C",
"F. c #D4B4A7",
"G. c #C8C0BE",
/* pixels */
"G.x.z.x.x.x.x.x.x.v.z.h.u.p.M.S.B.x.h.v.z.z.v.x.x.h.i.t.t.u.n.F.",
"m.O.F U U U U U U U Z z 7 s ] &.@...T U U U U U Z C h 4 - 3 S 6.",
"A.#...Z Z Z Z Z Z C l t 1 * d S } &.X.Z Z Z Z Z v j t 2 % % d ~ ",
"C.#.' Z Z Z Z Z Z C j w & @ o q ` #.] Z C C C v j e e w 2 % # K ",
"d.F V Z Z Z Z Z Z C j 9 : + . & p M V Z l j j s t w e w w 2 % K ",
"u.h l Z Z Z Z Z C v j w & + o % q x G G n r 5 w w w w w e w > K ",
"a.m C Z Z Z Z Z l j t w : + . 0 S | *.&.A 2 $ & 2 w w r r w > L ",
"h.C n n C C C v j e 9 2 : & q M { =.;.*.S 1 @ & 1 w w w w 5 : K ",
"u.h j j j j j j t 9 > % @ 0 ) } @.+.+.] b 9 , 2 > & 2 9 2 & # L ",
"e.6 w t r w w w w w > $ X i } ;.+.Y Z Z k r 9 2 & $ > w 1 % @ L ",
"w.6 u k 9 & & > 9 w 9 > # i } ;.{ Z C C k e 2 & # # > w w 1 : L ",
"t.g l v t < # $ 2 w w 2 # d } ;.@.Z Z C j 5 & # # % 1 9 w w 2 P ",
"a.m C C z u 1 $ 2 w 2 & X i } ;.@.U Z C u : @ @ : > > > 2 r u ! ",
"x.U Z Z Z n t 1 2 2 & % 0 M @.*.o.Z Z C h 1 % % > 2 > $ : e n 1.",
"x.U Z Z Z Z l j 9 & @ 0 S { { X.G Z Z Z n j r 2 > : $ @ @ r S 7.",
"x.U Z Z Z Z Z l 9 @ . d } =.+.F Z Z Z Z I C k t 1 # + @ X 0 _ 9.",
"z.I Z Z Z Z Z n 9 + . d | ;.+.V Z Z Z Z Z Z C k 9 @ o @ % 9 x %.",
"v.R D Z Z Z Z n 9 + . d } ;.+.Z Z Z Z Z Z Z Z n u % + # 1 9 2 E ",
"Z.$. .Z Z Z Z n 3 +   i } ;.+.Z Z Z Z Z Z Z Z C j 2 % # > 9 > K ",
"D.=.X.Z Z Z Z n 3 % = M } *.o.Z Z Z Z Z Z Z Z Z k w > $ > w > K ",
"D.:.X.Z Z Z Z n 9 q B [ } o.G Z Z Z Z Z Z Z Z Z k r > $ 1 w > K ",
"D.=...V Z Z Z l 3 d } =.+.F Z Z Z Z Z Z Z Z Z C k r > % 2 w 1 K ",
"B.o.R Z Z C l u 1 a | ;.+.Z C Z Z Z Z Z Z Z Z C j w 2 2 w 9 : K ",
"v.T Z Z Z C j w % d } ;.+.Z Z Z Z Z Z Z Z Z F F V f y w 5 w 0 Q ",
"z.I Z Z Z C j 9 $ d } ;.+.Z Z Z Z Z Z Z l n ' #.#.[ A 5 ; 9 N 3.",
"x.U Z Z Z v j 5 $ p | ;.+.Z Z Z Z Z Z Z v A { ;.:.*.S 2   8 ` 0.",
"x.U Z Z v j t 9 % d } ;.+.Z Z Z Z Z Z F ' { @.@.#.{ A 5 X 0 [ q.",
"z.U Z n j e w 2 $ p } ;.+.Z I Z Z Z I G &.;.@.G D V l e : r ` 0.",
"x.U Z C j 9 2 : @ d } ;.+.Z Z Z Z Z Z G &.>.@.Z C C n k e r c 2.",
"x.U Z C j w & @ . d } ;.+.Z Z Z Z Z Z G &.;.@.D Z Z Z C k e 2 W ",
"h.Z Z n j 5 & O . d | ;.+.Z Z Z Z Z l D #.;.@.F Z Z Z Z k e : H ",
"V.<.,./ ^ W P K K ! 7.0.4.<.<.<.<.<.^ ~ 5.0.8.<./ <.<.,.^ Q J ( "
};
