/* XPM */
static char *C1714051250[] = {
/* columns rows colors chars-per-pixel */
"32 32 214 2 ",
"   c #022D00",
".  c #002E00",
"X  c #002F01",
"o  c #0C2E0B",
"O  c #0C2E0D",
"+  c #003000",
"@  c #083202",
"#  c #0C3304",
"$  c #023900",
"%  c #0D310B",
"&  c #0D330C",
"*  c #0F330D",
"=  c #0F310E",
"-  c #0E320E",
";  c #0C3A0C",
":  c #10350C",
">  c #113D0C",
",  c #0F3110",
"<  c #0E3810",
"1  c #163516",
"2  c #1B3B14",
"3  c #1A3A15",
"4  c #203D21",
"5  c #024300",
"6  c #0C4204",
"7  c #0D420C",
"8  c #0D440D",
"9  c #0D4B0C",
"0  c #0D4A0E",
"q  c #0C4D0D",
"w  c #0E4C0D",
"e  c #0D4E0C",
"r  c #0D4E0E",
"t  c #10450D",
"y  c #055705",
"u  c #0C520C",
"i  c #0E540C",
"p  c #0D4D10",
"a  c #0D4F11",
"s  c #165013",
"d  c #167E0F",
"f  c #136711",
"g  c #1B7E14",
"h  c #1C7F15",
"j  c #1C7E17",
"k  c #264325",
"l  c #2D4A2E",
"z  c #039703",
"x  c #049605",
"c  c #009E00",
"v  c #079E03",
"b  c #049804",
"n  c #079906",
"m  c #039C04",
"M  c #049D04",
"N  c #18990B",
"B  c #1A8114",
"V  c #1B8215",
"C  c #1C8214",
"Z  c #1C8215",
"A  c #1D8016",
"S  c #1D8316",
"D  c #1A8416",
"F  c #1D8218",
"G  c #189712",
"H  c #199813",
"J  c #1B9A17",
"K  c #1E9118",
"L  c #1F971B",
"P  c #1C991B",
"I  c #1D9C1B",
"U  c #1C981C",
"Y  c #1D981C",
"T  c #1D991D",
"R  c #21971C",
"E  c #22991B",
"W  c #23991F",
"Q  c #02A003",
"!  c #06A002",
"~  c #04A203",
"^  c #02A403",
"/  c #05A401",
"(  c #07A700",
")  c #07A206",
"_  c #0DA303",
"`  c #0AA700",
"'  c #0CA701",
"]  c #0EA700",
"[  c #0EA701",
"{  c #0EA502",
"}  c #0BA205",
"|  c #08A705",
" . c #0EA405",
".. c #01AB00",
"X. c #02AA00",
"o. c #04AA00",
"O. c #00AC00",
"+. c #00AD00",
"@. c #01AD00",
"#. c #01AD01",
"$. c #00AE00",
"%. c #00AF00",
"&. c #01AF00",
"*. c #01AD03",
"=. c #08A800",
"-. c #08A901",
";. c #0BA801",
":. c #0AAB03",
">. c #0CA800",
",. c #0AA906",
"<. c #0EA108",
"1. c #0FA209",
"2. c #10A405",
"3. c #12A308",
"4. c #13A20C",
"5. c #12A20F",
"6. c #00B000",
"7. c #00B200",
"8. c #00B300",
"9. c #02B301",
"0. c #00B302",
"q. c #04B201",
"w. c #01B400",
"e. c #00B500",
"r. c #01B401",
"t. c #03B401",
"y. c #02B501",
"u. c #00B601",
"i. c #04B600",
"p. c #0AB102",
"a. c #0CB002",
"s. c #0AB004",
"d. c #2C9B25",
"f. c #359C2F",
"g. c #3B9C35",
"h. c #37BE26",
"j. c #479C34",
"k. c #51D237",
"l. c #54D439",
"z. c #59D63E",
"x. c #98927A",
"c. c #A4987E",
"v. c #9DE369",
"b. c #9BFF66",
"n. c #9CFF66",
"m. c #9CFF67",
"M. c #9CFB6B",
"N. c #9FFF68",
"B. c #9DFC6A",
"V. c #9FFF6A",
"C. c #A0FD67",
"Z. c #A2FB6B",
"A. c #A2FC69",
"S. c #A2FF68",
"D. c #A0FC6D",
"F. c #ACFA72",
"G. c #A8FC72",
"H. c #A39980",
"J. c #A4A387",
"K. c #A3A38B",
"L. c #A4A48A",
"P. c #A5A38C",
"I. c #A4A38E",
"U. c #A4A48C",
"Y. c #AEA28C",
"T. c #B5A689",
"R. c #B0A58F",
"E. c #B0A98D",
"W. c #B9A98F",
"Q. c #A2B283",
"!. c #A4B183",
"~. c #A3B384",
"^. c #A3B287",
"/. c #A5B284",
"(. c #A2B484",
"). c #AFBD8A",
"_. c #B3B18B",
"`. c #B9BA8E",
"'. c #C1B094",
"]. c #C0B096",
"[. c #C7B494",
"{. c #C9B696",
"}. c #CEBA97",
"|. c #B7C089",
" X c #BFC595",
".X c #C8C799",
"XX c #D4C79A",
"oX c #D0C99B",
"OX c #C4D698",
"+X c #CDEF98",
"@X c #C9F294",
"#X c #EED2A3",
"$X c #EDD0A4",
"%X c #ECD1A4",
"&X c #EED1A5",
"*X c #EDD2A5",
"=X c #EED1A7",
"-X c #EDD2A7",
";X c #EFD2A6",
":X c #EED3A6",
">X c #EFD2A8",
",X c #EED3A8",
"<X c #EFD2AA",
"1X c #F0D1A3",
"2X c #F0D1A5",
"3X c #F0D0A7",
"4X c #F1D2A6",
"5X c #F1D1A8",
"6X c #F0D3A9",
"7X c #F0D0AA",
"8X c #DCE2A4",
"9X c #D5E9A1",
"0X c #D2EDA0",
"qX c #D8E9A5",
/* pixels */
"&X&X&X&X&X&X&X&X&X&X&X&X&X&X&X>X&X&X&X$X&X&X&X&X&X&X&X&X&X&X&X&X",
"&X&X&X&X&X&X&X&X&X&X&X&X&X&X&X&X&X&X$X&X&X&X&X&X&X&X&X&X&X&X&X&X",
"&X&X&X&X&X&X&X&X&X&X>X%X#X&X&X$X&X&X&X&X&X&X&X&X&X&X&X&X&X&X&X&X",
"&X&X&X&X&X&X&X&X&X&X&X&X&X&X&X8X[.&X&X&X&X&X&X&X&X&X&X&X&X&X&X&X",
"&X&X&X&X&X&X&X&X&X&X&X&X$X>XqXM.k W.&X&X&X&X&X&X&X&X&X&X&X&X&X&X",
"&X&X&X&X&X&X&X&X&X>X$X&X>X9XV.M.3 3 T.&X&X&X&X4X&X&X&X&X&X&X&X&X",
"&X&X&X&X&X&X&X&X&X&X&X>X0XN.b.N.3 O - Y.>X&X&X&X&X&X&X&X&X&X&X&X",
"&X&X&X&X&X&X&X&X>X&X>X+Xm.m.N.Z.s , - - H.>X&X&X&X&X&X&X&X&X&X&X",
"&X&X&X&X&X&X&X&X&X,X@Xm.b.b.S.z.w.r , - - x.7X4X&X&X&X&X&X&X&X&X",
"&X&X&X&X&X&X&X&X4XOXF.S.m.S.l.7.w.q.u - - > E.&X&X&X&X&X&X&X&X&X",
"&X&X&X&X&X&X&X&X&X^.j.v.G.k.w.w.7.w.w.i t e U.4X&X&X&X&X&X&X&X&X",
"&X&X&X&X&X&X&X&X&X~.V D h.u.w.w.7.@.@.} 0 e U.&X&X&X&X&X&X&X&X&X",
"&X&X&X&X&X&X&X&X>X~.S V t.w.7.7.7.@.@.^ 9 9 L.&X&X&X&X&X&X&X&X&X",
"&X&X&X&X&X&X&X&X&X~.V V w.w.w.@.@.*.@.Q 0 0 U.&X&X&X&X&X&X&X&X&X",
"&X&X&X&X&X&X&X&X&X~.V S t.w.7.*.@.o.` M r r I.$X&X&X&X&X&X&X&X&X",
"&X&X&X&X&X&X&X&X&X~.V S p.7.@.@.X.o.( M r r I.&X&X&X&X&X&X&X&X&X",
"&X&X&X&X&X&X&X&X&X!.B g s.@.@.o.-.{ ;.b r r K.4X&X&X&X&X&X&X&X&X",
"&X&X&X&X&X&X&X&X&X!.S S a.@.@.;.{ 2.<.x r a U.#X&X&X&X&X&X&X&X&X",
"&X&X&X&X&X&X&X&X&X(.S j s.@.;.;. .4.! x r r U.%X&X&X&X&X&X&X&X&X",
"&X&X&X&X&X&X&X&X4X~.j V ,.@.;. .3.4.c n u r K.&X&X&X&X&X&X&X&X&X",
"&X&X&X&X&X&X&X&X#X!.d y 5 ( ( <.5.} | P K f J.&X&X&X&X&X&X&X&X&X",
"&X&X&X&X&X&X&X&X&X_.$ X + 6 Q  .{ ,.J Y W E `.#X&X&X&X&X&X&X&X&X",
"&X&X&X&X&X&X&X&X&X&Xc.X X # 8 v -.H T P P ).>X&X&X&X&X&X&X&X&X&X",
"&X&X&X&X&X&X&X&X&X&X7XR.+ @ - 7 N T T W |.4X&X&X&X&X&X&X&X&X&X&X",
"&X&X&X&X&X&X&X&X&X&X&X&XW.: & < G T d. X&X&X&X&X&X&X&X&X&X&X&X&X",
"&X&X&X&X&X&X&X&X&X&X&X&X#X'.4 ; L f..X&X&X&X&X#X&X&X&X&X&X&X&X&X",
"&X&X&X&X&X&X&X&X4X&X&X&X&X&X{.l g.oX&X4X&X4X&X&X&X&X&X&X&X&X&X&X",
"&X&X&X&X&X&X&X&X&X&X&X&X&X&X&X}.XX#X&X&X&X&X$X&X&X&X&X&X&X&X&X&X",
"&X&X&X&X&X&X&X&X&X&X&X&X&X&X&X&X&X&X&X&X&X&X&X4X&X&X&X&X&X&X&X&X",
"&X&X&X&X&X&X&X&X&X&X&X&X&X&X&X&X&X&X&X&X&X&X&X&X&X&X&X&X&X&X&X&X",
"&X&X&X&X&X&X&X&X&X&X&X&X&X#X&X&X&X>X&X&X&X&X$X&X&X&X&X&X&X&X&X&X",
"&X&X&X&X&X&X&X&X&X&X&X&X&X#X&X&X&X&X&X&X&X4X&X&X&X&X&X&X&X&X&X&X"
};
