/* XPM */
static char *E1714051250[] = {
/* columns rows colors chars-per-pixel */
"32 32 103 2 ",
"   c #000308",
".  c #03080C",
"X  c #050C12",
"o  c #090E13",
"O  c #0D1216",
"+  c #0E1319",
"@  c #11151B",
"#  c #12181E",
"$  c #161C23",
"%  c #181D25",
"&  c #1B1F2A",
"*  c #1A212B",
"=  c #1F2733",
"-  c #1E2832",
";  c #22262F",
":  c #23282E",
">  c #222632",
",  c #242B35",
"<  c #282C37",
"1  c #262E3B",
"2  c #292E3A",
"3  c #2A313C",
"4  c #30333F",
"5  c #282F41",
"6  c #2F3744",
"7  c #2E3844",
"8  c #2B3649",
"9  c #2F3A4E",
"0  c #313642",
"q  c #353B47",
"w  c #383A46",
"e  c #363D4A",
"r  c #3A3D4B",
"t  c #2F3A50",
"y  c #323D52",
"u  c #3C3F50",
"i  c #37414A",
"p  c #3A414C",
"a  c #364255",
"s  c #3F4551",
"d  c #364258",
"f  c #3B455B",
"g  c #3D495C",
"h  c #414553",
"j  c #434955",
"k  c #474C5A",
"l  c #494F5C",
"z  c #4A515D",
"x  c #444D63",
"c  c #494F65",
"v  c #4E5461",
"b  c #4F556C",
"n  c #505662",
"m  c #535966",
"M  c #53576C",
"N  c #555A6C",
"B  c #595C6D",
"V  c #535770",
"C  c #555A73",
"Z  c #5C5F73",
"A  c #5B5F78",
"S  c #615F75",
"D  c #5A606E",
"F  c #5E6072",
"G  c #616276",
"H  c #63667A",
"J  c #65687B",
"K  c #68697E",
"L  c #676980",
"P  c #6C6C83",
"I  c #706E86",
"U  c #6E7087",
"Y  c #6E7089",
"T  c #707584",
"R  c #767A86",
"E  c #787C87",
"W  c #72738A",
"Q  c #767B89",
"!  c #787C89",
"~  c #747891",
"^  c #7B7C94",
"/  c #7E8097",
"(  c #868B95",
")  c #888C96",
"_  c #84859C",
"`  c #898C98",
"'  c #868BA2",
"]  c #8A8CA4",
"[  c #898DA8",
"{  c #9497A0",
"}  c #9193AE",
"|  c #9094B1",
" . c #959AB2",
".. c #989DB7",
"X. c #989CB9",
"o. c #9CA1BB",
"O. c #A0A3AA",
"+. c #ACADB2",
"@. c #A4ABC4",
"#. c #A8ABC7",
"$. c #A7AECA",
"%. c #A9ADCA",
"&. c #AFB4D1",
/* pixels */
"{ T R R R R R R R R R R R R R R R R R R W R R R Q R R R R R T O.",
"U a 8 8 8 8 t 9 y y 9 9 9 9 t e t t 9 t t e e t t t t 9 9 y f ( ",
"E a 7 6 2 < = & * * & & & & = * * * & = * * * * * * * * & 1 y ( ",
"E D U Q W Z 6 . o O O o o + o o + O o o O O O o O O O o o - y ) ",
"! ~ ..#.@.` l   o @ O @ + + + + + O O O O O @ + + + + o + = y ` ",
"/ W  .&.&. .M + o o X X X o + + + + + + @ O + + + + + O + > y ( ",
"E F ^ ..$. .C * $ @ $ $ $ $ @ + + + O + O + @ + + + + + + > y ( ",
"Q b P } %. .F 3 0 w h k j w > + o @ O + @ @ O + + + + + + = y ) ",
"! N Y } #. .F q j m G L J m 4 o O O O O + + O O + @ + O + - y ( ",
"Q V U } $. .D i z B G U I G w @ O O O O O + + @ @ + + O + , y ) ",
"! V U } $. .Z i z m N H P G r # @ @ @ @ @ @ @ O + + + O O = y ( ",
"R C P | $. .F i z z n D L S r * : , , , , : $ @ + + O O O > y ) ",
"! V U } %. .Z e z z n F K G r , 0 r e i w 4 * @ O + @ o + = y ` ",
"! N P ] X.' m i z n n F K G r < r s j p h q : O o + + @ O = a ` ",
"! C P ~ / U k r z n n F K G r < e h h h s w , + @ @ @ o o - y ` ",
"! C P W P F h s z n n D P G r < e s s s h q ; @ % & * % $ = y ( ",
"! C I W Y Z h s z n n F K S r 2 e j h p j e : % , 3 3 , % - y ) ",
"! C P W I S h u l n n B H B w < w p s j p e : * 3 0 6 3 * - y ) ",
"R C P W I S j u z n v n m l 4 < e j s s s e : * 1 7 6 3 * = y ` ",
"Q C P W I A j p z v v v v j 3 2 i p j s p q : * 3 7 7 3 * , y ) ",
"Q C P W I S h p z v v v z j 3 2 r h h s s q * * 2 0 7 3 * = y ) ",
"! C I ^ ' W c r l v v m B z 4 < e h h p j 4 : * 5 7 7 2 * = y ) ",
"Q V Y ] O.[ m p z n n D J B w < q s s s j 4 : * 3 7 7 2 * = y ` ",
"! V I } #. .D r l n n D L G w < w h s s s i : * 2 7 7 2 * = y ( ",
"! V W | %. .F e z z n Z K G r < i h h h p e * * 3 7 6 1 & = y ( ",
"! V P | %. .F i z n m F K G r 1 i s h p j e : * 2 7 6 6 & - y ( ",
"! V P | $. .F i l z n F P Z w < i s h h s e : * 2 7 7 2 * = y ) ",
"R C I [ o.] N e z z n D P S r < i s h h p e * * 2 7 7 2 * - e ) ",
"R C P ^ _ T l s l v v F P Z w < q s h h s e > * 1 8 7 2 * = t ) ",
"R V J P K B g a k v v C G N s 6 i h s s s i 3 1 8 e e 8 1 5 a ( ",
"Q x b b b c g g g x x c M c f a f g g g g a d y a f f a y d f ( ",
"O.( ) ) ` ) ) ) ) ) ( ) ) ) ) ( ) ) ) ) ) ) ) ( ` ( ( ` ` ( ( +."
};
