/* XPM */
static char *N1714051250[] = {
/* columns rows colors chars-per-pixel */
"32 32 200 2 ",
"   c #00070B",
".  c #00090B",
"X  c #080F15",
"o  c #0C1117",
"O  c #081118",
"+  c #14191F",
"@  c #11161C",
"#  c #000128",
"$  c #00152D",
"%  c #191D25",
"&  c #111520",
"*  c #1C2026",
"=  c #1E222C",
"-  c #142038",
";  c #21252E",
":  c #242C3A",
">  c #2A2C36",
",  c #2C323C",
"<  c #25313F",
"1  c #31353E",
"2  c #3E3C3D",
"3  c #4A453F",
"4  c #1B2A44",
"5  c #222F43",
"6  c #2D3643",
"7  c #2A344B",
"8  c #28344B",
"9  c #323541",
"0  c #343A45",
"q  c #353B4A",
"w  c #393D4A",
"e  c #353746",
"r  c #2C3850",
"t  c #343E52",
"y  c #343C55",
"u  c #3D424E",
"i  c #364154",
"p  c #3D4353",
"a  c #3B425B",
"s  c #4A4643",
"d  c #4E4841",
"f  c #4A474A",
"g  c #48474A",
"h  c #534B43",
"j  c #574F4C",
"k  c #59514A",
"l  c #434753",
"z  c #444A56",
"x  c #4D4D53",
"c  c #43465C",
"v  c #454C5A",
"b  c #494E5C",
"n  c #524F51",
"m  c #4B515E",
"M  c #535152",
"N  c #51525C",
"B  c #5A565A",
"V  c #5B5351",
"C  c #64584C",
"Z  c #725E4F",
"A  c #6B635C",
"S  c #7C6D57",
"D  c #7D6E59",
"F  c #736353",
"G  c #766049",
"H  c #4C4E61",
"J  c #424A61",
"K  c #4C5161",
"L  c #4E536A",
"P  c #515463",
"I  c #545964",
"U  c #5C5A61",
"Y  c #545669",
"T  c #55596C",
"R  c #595B6D",
"E  c #59576C",
"W  c #5B5D72",
"Q  c #625E66",
"!  c #5E6174",
"~  c #5C617A",
"^  c #6B6663",
"/  c #696768",
"(  c #756C65",
")  c #756B69",
"_  c #616275",
"`  c #64657B",
"'  c #66697D",
"]  c #6A6A7E",
"[  c #696870",
"{  c #706B71",
"}  c #7E787A",
"|  c #846F52",
" . c #82745A",
".. c #A77E52",
"X. c #8D7D66",
"o. c #8F7F69",
"O. c #847561",
"+. c #9C8B6E",
"@. c #97846C",
"#. c #9A8A72",
"$. c #9C8C7A",
"%. c #A18E7B",
"&. c #AA9677",
"*. c #AB9778",
"=. c #AC9A7C",
"-. c #A89374",
";. c #B59E7D",
":. c #B8A17D",
">. c #C59D6A",
",. c #6D6E84",
"<. c #706E84",
"1. c #6E7086",
"2. c #6F728A",
"3. c #72728A",
"4. c #76788D",
"5. c #7E7B8C",
"6. c #767992",
"7. c #7B7C94",
"8. c #797B95",
"9. c #847F8D",
"0. c #7D8298",
"q. c #9B8F8E",
"w. c #968982",
"e. c #848292",
"r. c #82849B",
"t. c #888B9E",
"y. c #968C93",
"u. c #9A9091",
"i. c #9B928B",
"p. c #A89681",
"a. c #A29492",
"s. c #BCA585",
"d. c #BEA98A",
"f. c #BBA899",
"g. c #858AA4",
"h. c #898DA6",
"j. c #8B8EA9",
"k. c #8587A0",
"l. c #8E92AB",
"z. c #9195AF",
"x. c #9196B1",
"c. c #9498B3",
"v. c #989CB7",
"b. c #9B9FBA",
"n. c #9EA3BD",
"m. c #A7A4A8",
"M. c #B6ACA2",
"N. c #B8AFA6",
"B. c #A8A7B7",
"V. c #B6B5BD",
"C. c #C3AC8A",
"Z. c #CDB48E",
"A. c #CBB18B",
"S. c #D0B78F",
"D. c #C3AE9A",
"F. c #CAAF91",
"G. c #C7B090",
"H. c #CEB491",
"J. c #CAB69D",
"K. c #D3BA92",
"L. c #D9BF97",
"P. c #D6BD9E",
"I. c #DABF9B",
"U. c #D0B691",
"Y. c #C4B9AD",
"T. c #D8BFA0",
"R. c #D0B5A0",
"E. c #C6BBB9",
"W. c #DDC19A",
"Q. c #DBC095",
"!. c #E1C59C",
"~. c #E6CB9F",
"^. c #E8CB9F",
"/. c #D3C0AF",
"(. c #CFC2B2",
"). c #D9C9B9",
"_. c #EBCEA4",
"`. c #E7CAA5",
"'. c #EED1A5",
"]. c #F1D3A6",
"[. c #F5D6A8",
"{. c #E0CFBB",
"}. c #E7D6BE",
"|. c #F1D9BD",
" X c #A5ABC5",
".X c #A7ACC8",
"XX c #A8ADC9",
"oX c #A2A6C1",
"OX c #B6B6C4",
"+X c #BDBED0",
"@X c #D5D2DB",
"#X c #C7C8DA",
"$X c #EBD9C1",
"%X c #EEDDC9",
"&X c #F3DFC4",
"*X c #E6DCD3",
"=X c #F4E0C5",
"-X c #F6E9D8",
";X c #F7EAD7",
":X c #CED1E3",
/* pixels */
"-X&X=X=X&X*X:X+XOX).%X*X:X:X#XOXB.B.E.$X*X@XOXm.E.}.Y.M.).&X&X-X",
"&X'.'.'.'./.B.g.9.M.E.E. XoXz.4.] <.a.J.E. X6.j ;.L.%.( G.'.'.&X",
"&X'.'.].'.G.} ! 6.m.OXB.9.,.E c H ] 9.y.y.9.W k :.L.%.( F.'.'.%X",
"=X'.'.'._.Z.+.( ,.g.v.9.W 7     9 E ` <.,._ ) @.S.!.%.( G.'.].&X",
"=X].'.'.'.`.L.-.B ` 8.W 1 % X O % , H ] E n -.K._.W.$.( G.'.].=X",
"=X'.'.].].[.'.:.h H ' b @   O O   X l ,.Y s *.`.[.~.$.( G._.].&X",
"=X'._._._.'.~.;.j L ] b % O @ + + % x ` Y f -.W.].!.$.) G.'.].&X",
"&X`.J.D.D.D.f.$.Q E ! P 0 : < 0 e w b W Y x O.;.Q.!.%.) F.'.'.=X",
"=XW.u.9.5.9.e.5.,.! P K v i r p b b m N m m x ( s.K.#.( C.'.'.=X",
"=XP.y.~ Y 3.l.h.3.Y u z m i 8 6 1 1 1 1 , u ` e.i.#.A ( H.'.].=X",
"=XP.q.W z 4.b.c.4.P w z v i r i z z z z w u 0.n.t.U q ^ s.!._.=X",
"=XP.q.' W 3.j.k.3.` R I b i L 0.l.l.l.l.7.' 6.l.x.g.~ x O.s.W.=X",
"=X/.q.3.7.7.4.3.3.1.,.! K y ~ z.XXXX X Xc.4.,.4.z.n.0.T 0 D K.=X",
"&XL.u.r.v.l.6.1.3.3.1._ b y L 8.z.l.l.l.r.4.! T 4.l.c.g.Y S Z.=X",
"=XP.q.h.XXn.0.,.1.3.,.! K y a ,.3.4.3.3.3.1.R p L 4.n.n.,.D Z.=X",
"=XI.q.l.XXn.7.2.3.3.<._ m i c ` 1.3.1.<.3.1.R p p 1.n.oX1.D K.=X",
"&XP.q.h.XXn.8.2.3.3.,._ P y y E _ ` ] <.4.1.R u u ! l.x.~ D Z.=X",
"&XT.u.j..Xn.8.<.3.1.,.W m y r e e w H ,.2.1.R i p R 4.6.m S S.=X",
"&XT.y.j..Xn.8.3.1.3.,._ K i r a w ; e Y ! R v 1 u v T Y e D S.=X",
"&XT.q.j..Xn.9.<.1.3.,._ K t a W E 1 * , 0 1 > = > u i q - S S.=X",
"&XT.q.9.c.j.8.3.3.3.1._ K y i P P > * , 1 1 1 0 , : 4 4 $ S S.=X",
"&XP.y.6.6.6.3.3.3.1.] _ K i 8 5 > ; 1 z m m m z 0 ; 4 4 $ S S.=X",
"&XT.q.,.E _ <.3.1.[ Y P H i 8 5 < 6 c E W v l u 9 : 5 4 # S H.=X",
"&XT.y.E w b ,.1.,.P e l b i i U ^ ^ [ ] W l u 0 0 9 8 6 2 X.K.=X",
"&XP.w.L p m ! _ ! N l z b y U =.d.d.p.{ K l p l l p r B #.C.!.=X",
"$XH.$./ I m N I P P b N b t ( C.W.Q.s.^ a I I P T P y ^ s.W._.=X",
"Y.;.d.p.A n n n M M M M n f A @.=.=.@.U L ' ' ' ' ! J N o.s.!.&X",
"N.%.C.s.D d h h h h h h h h h k k k k N R ' ] ,.] ' K w f X.C.}.",
").d.-.X.C 3 d d h 3 h h h h 3 3 d 3 s f N U U U U B x s s C X.Y.",
"=XW.*.X.@.X.X.@.o.o.X.G C G | X.@.X.X.@.o.o.X.X.X.X.X.X.X.X.X.N.",
"=X~.Q.U.S.K.S.K.L.K.H.o.| ..>.Z.K.K.S.K.K.K.K.K.K.K.K.K.K.L.K.).",
";X=X=X=X=X=X=X=X&X&X$XY.f.H.`.|.=X=X=X&X=X=X=X=X=X=X=X=X=X=X=X;X"
};
