/* XPM */
static char *PD1714051250[] = {
/* columns rows colors chars-per-pixel */
"32 32 224 2 ",
"   c #58341D",
".  c #713314",
"X  c #5B392B",
"o  c #693B28",
"O  c #3D4902",
"+  c #3A5A11",
"@  c #3F7112",
"#  c #317526",
"$  c #3D7432",
"%  c #544919",
"&  c #51501C",
"*  c #60441D",
"=  c #584A22",
"-  c #505F24",
";  c #6B452C",
":  c #6C4A29",
">  c #77452B",
",  c #6A522C",
"<  c #73552A",
"1  c #77562C",
"2  c #664336",
"3  c #7B4631",
"4  c #7B4933",
"5  c #7C4B3A",
"6  c #665431",
"7  c #7D5835",
"8  c #4A6728",
"9  c #546728",
"0  c #4B722A",
"q  c #4F7234",
"w  c #7A6432",
"e  c #726A2E",
"r  c #7E5342",
"t  c #5C7D52",
"y  c #7B6E5D",
"u  c #833E1F",
"i  c #803F21",
"p  c #85462A",
"a  c #834932",
"s  c #8C4B32",
"d  c #874933",
"f  c #914E37",
"g  c #8E5737",
"h  c #955133",
"j  c #9B5434",
"k  c #9A593C",
"l  c #A65D33",
"z  c #AA5F35",
"x  c #AA5B2A",
"c  c #896C33",
"v  c #AC6232",
"b  c #AB6737",
"n  c #B16433",
"m  c #B86C33",
"M  c #A07537",
"N  c #B77133",
"B  c #B3682E",
"V  c #CB7A1F",
"C  c #CC792B",
"Z  c #C6762B",
"A  c #D37D25",
"S  c #C87635",
"D  c #D47D35",
"F  c #D97E37",
"G  c #835846",
"H  c #955943",
"J  c #836C42",
"K  c #996949",
"L  c #897D42",
"P  c #966D54",
"I  c #B87848",
"U  c #A97156",
"Y  c #AD795D",
"T  c #B97859",
"R  c #A9704A",
"E  c #8F6B60",
"W  c #B37D61",
"Q  c #C47C4B",
"!  c #2B852D",
"~  c #35832E",
"^  c #319A35",
"/  c #3D9E3B",
"(  c #389336",
")  c #2D8D33",
"_  c #52861A",
"`  c #5C8A34",
"'  c #47983A",
"]  c #538931",
"[  c #6C863C",
"{  c #6E8D3A",
"}  c #7C8545",
"|  c #5CA447",
" . c #76A948",
".. c #5E9762",
"X. c #DA8235",
"o. c #C98532",
"O. c #E98B36",
"+. c #E48735",
"@. c #808444",
"#. c #92924C",
"$. c #849B4D",
"%. c #A88C56",
"&. c #B0864E",
"*. c #8BA553",
"=. c #89B952",
"-. c #89BA4F",
";. c #8B8B7F",
":. c #AF927B",
">. c #B3927B",
",. c #B89262",
"<. c #B9A566",
"1. c #A4B354",
"2. c #DB8B4B",
"3. c #D88844",
"4. c #C89C48",
"5. c #C68355",
"6. c #DB8C52",
"7. c #CE8D56",
"8. c #E19152",
"9. c #E1904F",
"0. c #C9A652",
"q. c #CAA851",
"w. c #CDB753",
"e. c #C8A64F",
"r. c #C98664",
"t. c #D48C66",
"y. c #C69263",
"u. c #CB9367",
"i. c #DB936C",
"p. c #DD9C6B",
"a. c #D89768",
"s. c #DB9C75",
"d. c #D99372",
"f. c #C39271",
"g. c #E79968",
"h. c #E19C75",
"j. c #EA9E76",
"k. c #E29F78",
"l. c #E99F78",
"z. c #DEA27A",
"x. c #D4A56C",
"c. c #E3A275",
"v. c #EBA174",
"b. c #E4A179",
"n. c #EDA37B",
"m. c #E6AC7F",
"M. c #F3A97D",
"N. c #F1A676",
"B. c #B0C859",
"V. c #D1CF5E",
"C. c #D5D765",
"Z. c #D3D26E",
"A. c #EADF6C",
"S. c #E0CD66",
"D. c #D5E069",
"F. c #E7E06C",
"G. c #EBE06D",
"H. c #958B85",
"J. c #9C9290",
"K. c #AA8C84",
"L. c #B3928B",
"P. c #AA9B98",
"I. c #B59792",
"U. c #8CA78B",
"Y. c #94A68A",
"T. c #9CB79E",
"R. c #8EB98E",
"E. c #A9A19F",
"W. c #BBA29D",
"Q. c #B4A59D",
"!. c #A5B89C",
"~. c #9FB5A0",
"^. c #AAA2A0",
"/. c #B5A6A2",
"(. c #BBA9A3",
"). c #D5A68C",
"_. c #EAAC84",
"`. c #F4AB82",
"'. c #F5AF88",
"]. c #F9B086",
"[. c #EBB498",
"{. c #F7B694",
"}. c #DDBCAA",
"|. c #C6BDB5",
" X c #F2BDA5",
".X c #E9BBA8",
"XX c #9EC49E",
"oX c #A8C99A",
"OX c #B4C89E",
"+X c #A8CA8E",
"@X c #B9CDB0",
"#X c #DDC6A5",
"$X c #D1C1BE",
"%X c #C5C2BD",
"&X c #E8C8A8",
"*X c #FAC3A7",
"=X c #EED1A5",
"-X c #F0D1A5",
";X c #F8CBB6",
":X c #EFD6B5",
">X c #ECC9B5",
",X c #F1EAAA",
"<X c #E2E9A8",
"1X c #BFD7C1",
"2X c #CBC6C4",
"3X c #D6CAC7",
"4X c #C7D5C7",
"5X c #D0D1CB",
"6X c #D7D9D2",
"7X c #F7DACA",
"8X c #FDDED2",
"9X c #F4DBD4",
"0X c #F5E2CC",
"qX c #EAE4DE",
"wX c #F6E4D6",
"eX c #F9F2DF",
"rX c #ECEBE6",
"tX c #EBEAE9",
"yX c #E5E6E4",
"uX c #F3ECE4",
"iX c #F1EBE9",
"pX c #ECF3EA",
"aX c #F7F7E6",
"sX c #D5E4D1",
/* pixels */
"=X=X=X=X=X=X=X=X=XpX1XXXXXXXXXXXXXXXXXXXoXXXXX4XpX:X=X=X=X=X=X=X",
"=X=X=X=X=X=X=X=X:XsX+X=.-.=.=.=.=.=.=.=.=. .| XXpX=X=X=X=X=X=X=X",
"=X=X=X-X=X=X=X=X1XoXZ.D.D.D.D.D.D.D.D.D.C.B. .~.yX=X=X=X=X=X=X=X",
"=X=X=X=X=X=X=XrXoXB.D.F.F.F.F.F.G.F.F.G.G.V.1.OXpX=X=X=X=X=X=X=X",
"=X-X=X-X=X=X=XaX<XV.w.w.e.0.0.0.q.q.e.e.q.w.Z.<XaX=X-X-X=X=X=X=X",
"=X=X=X=X=X=X=XaX,XS.o.N N N N m N b b B N 4.Z.,XeX-X-X-X=X=X=X=X",
"=X=X=X=X8X7X=XuX#X4.o.C Z C C Z B v v B Z o.4.#XuXwX7X0X=X=X=X=X",
"=X=X=X=X=X=X8X0X).N A 3.p.p.6.3.Q ,.f.u.3.V N ).9X0X*X;X0X=X=X=X",
"=X=X=X=X=X{. X{.s.C A p.&X-X_.t.t.).&X&Xp.A C h. X*X{.;X7X=X=X=X",
"=X=X=X=X=XM.M.N.8.X.3.b.#X&X[.j.j.[.&X#Xz.+.X.8.N.].`.;X7X-X=X=X",
"=X=X=X=X=Xl.M.v.9.9.g.c.:.>.z.`.M.k.:.>.z.8.3.8.N.M.N.;X0X=X-X=X",
"=X=X=X=X7X X'.j.2.6.v.c.Y Y b.].].h.U ,.b.N.2.2.j.j.d.}.wX=X=X=X",
"=X-X=X=X=X9X[.g.Q 5.n.`.s.k.`.'.].`.s.k.`.c.5.5.g.t.U (.rX=X=X=X",
"=X=X=X=X-XiX&Xy.N 5.v.].'.`.z.s.d.k.`.'.M.h.Q I r.R G E.rX-X=X-X",
"=X=X=X-X=XrX!.#.M &.v.].].h.Y G G Y k.`.N.a.&.M L w 7 ^.tX=X=X=X",
"=X=X=XqXyX5XY.{ M I t.b.n.s.U r G Y h.n.a.y.M c 9 - 7 L.3X0X=X=X",
"-X-X$XI.L.:.P g g k K T d.h.t.r.r.t.h.a.%.} ` ` -   p H K.$X:X-X",
"iX3XL.j x N N n j s d H T r.y.y.u.u.u.%.{ ) ^ | J g p u 5 /.tX=X",
"$XK.P x C +.O.F n s p f H K L } @.@.y { ' ^ / $.y.T k . o E.tX-X",
"W.f s l D +.+.F v s s s 3 6 8 8 0 0 ~ ) / | *.<.z.i.T s 2 E.yX-X",
"W.f s j l v n z j s s s 3 ; = = < e ] ^ / *.x.m.M.n.t.T G P.qX-X",
"W.k z n l s s h n n j s 3 ; = = > e ` ` ` #.u.n.`.`.n.t.U |.tX-X",
"W.R D F n h s z D D B d 3 6 8 8 < p c 1 c c K 5.n.`.`.j.d.}.9X=X",
"W.z S F S m m S X.D z s 3 6 - - : > < < < < < K y.v.M.{. X9X&X=X",
"W.j l S F O.O.F S l h d 3 ; = %   % 9 0 0 0 0 q } ,.m.*XuX-X-X-X",
"W.s s l S F +.F z s p a 3 ; & O % + # ! ! ! ( ..R.(.>XwX-X-X=X-X",
"W.H s j l z n l h s a a 3 6 q q # $ # ~ ( ^ / R.sXtXwX=X=X=X=X=X",
"3XI.E u u u p u d a 3 o o y J.~.T.U.t @ _ _ ` !.tX=X=X=X=X=X=X=X",
"uX6XL.G 4 r r 5 5 5 ; o X H.5XtXqX4X;.6 7 w r Q.rX=X=X=X=X=X=X=X",
"-X=X2X/./././.P.E o o     J.yX-X=XqX|.E.W.W.(.5X:X=X-X-X=X=X=X=X",
"=X=X=X=X=X=X=X=XJ.X X X X J.yX=X=X=X:XtXrXiXrX=X=X=X=X=X=X=X=X=X",
"=X-X=X=X=X-X-XqX%X^.P.E.E.|.tX=X-X=X=X=X=X=X=X=X=X=X=X=X=X=X=X=X"
};
