/* XPM */
static char *PH1714053243[] = {
/* columns rows colors chars-per-pixel */
"32 32 220 2 ",
"   c #010017",
".  c #4D1B02",
"X  c #5A230B",
"o  c #5A2914",
"O  c #502713",
"+  c #5B321A",
"@  c #6B321E",
"#  c #683621",
"$  c #763522",
"%  c #763925",
"&  c #7C3B24",
"*  c #793F2B",
"=  c #3D5A1E",
"-  c #2D6D1F",
";  c #396F25",
":  c #2B7926",
">  c #337B29",
",  c #3A7729",
"<  c #2D6F25",
"1  c #43591F",
"2  c #4B4F1B",
"3  c #5D4720",
"4  c #515724",
"5  c #7B4526",
"6  c #7C4F2B",
"7  c #7A4328",
"8  c #6D5927",
"9  c #755429",
"0  c #7B522B",
"q  c #7B5B2E",
"w  c #755A2A",
"e  c #794E3E",
"r  c #7D5E30",
"t  c #476825",
"y  c #546D29",
"u  c #566827",
"i  c #4E7C2D",
"p  c #4C7128",
"a  c #58752C",
"s  c #537B36",
"d  c #67662A",
"f  c #7A612F",
"g  c #73622D",
"h  c #766B31",
"j  c #7B6331",
"k  c #6A7A34",
"l  c #7F5946",
"z  c #813F28",
"x  c #82442B",
"c  c #834C2B",
"v  c #874629",
"b  c #885128",
"n  c #985A2F",
"m  c #894F37",
"M  c #8B553B",
"N  c #9F5F31",
"B  c #8F6C37",
"V  c #B46F33",
"C  c #C87A35",
"Z  c #8B5E49",
"A  c #935D43",
"S  c #8A654D",
"D  c #97664B",
"F  c #866A51",
"G  c #877856",
"H  c #9C7154",
"J  c #94765B",
"K  c #987959",
"L  c #8A744A",
"P  c #A66A47",
"I  c #BF794A",
"U  c #A46E54",
"Y  c #A37357",
"T  c #A27B5D",
"R  c #A87D5E",
"E  c #A77359",
"W  c #B47653",
"Q  c #9C7F61",
"!  c #A37E63",
"~  c #C37F52",
"^  c #2E832C",
"/  c #35862E",
"(  c #338E33",
")  c #3A8C31",
"_  c #2E9633",
"`  c #2B9933",
"'  c #3A9B39",
"]  c #369635",
"[  c #3BA13B",
"{  c #36A13A",
"}  c #4E8936",
"|  c #538B34",
" . c #5A8835",
".. c #4E973A",
"X. c #419637",
"o. c #539237",
"O. c #53953C",
"+. c #42842D",
"@. c #658235",
"#. c #559A41",
"$. c #6C8B4C",
"%. c #798445",
"&. c #7B8652",
"*. c #759551",
"=. c #78A459",
"-. c #6FA452",
";. c #D98737",
":. c #CC843A",
">. c #DDA23E",
",. c #8A8548",
"<. c #878B59",
"1. c #899A5D",
"2. c #968F56",
"3. c #BC8759",
"4. c #AE8F5A",
"5. c #93AB4A",
"6. c #95BE51",
"7. c #8DA849",
"8. c #9D9A65",
"9. c #A88767",
"0. c #A8966B",
"q. c #A4837C",
"w. c #A88B75",
"e. c #BB9878",
"r. c #AF8E72",
"t. c #93AA67",
"y. c #A9A976",
"u. c #B4A97B",
"i. c #ABB56B",
"p. c #B3BB54",
"a. c #D5884B",
"s. c #D68647",
"d. c #C59E4D",
"f. c #C79646",
"g. c #C58559",
"h. c #DD8D58",
"j. c #CA834F",
"k. c #E19152",
"l. c #E08F4E",
"z. c #DDA446",
"x. c #D2AF50",
"c. c #C98A68",
"v. c #D18B69",
"b. c #D98B65",
"n. c #CC9165",
"m. c #C9986B",
"M. c #D5936C",
"N. c #DA976A",
"B. c #C89773",
"V. c #DC9A74",
"C. c #D79874",
"Z. c #E3976B",
"A. c #E39C74",
"S. c #EB9E75",
"D. c #E29A76",
"F. c #C3A27D",
"G. c #D9A579",
"H. c #D2A561",
"J. c #ECA37B",
"K. c #E8A176",
"L. c #F1A577",
"P. c #EBB275",
"I. c #A7C065",
"U. c #B3C758",
"Y. c #D0C85C",
"T. c #EACC5E",
"R. c #DCDF69",
"E. c #DBD462",
"W. c #D4D46B",
"Q. c #E7DA68",
"!. c #EADB68",
"~. c #E6D967",
"^. c #E6D979",
"/. c #F2DA7A",
"(. c #DEE36C",
"). c #B89B8B",
"_. c #8BA98A",
"`. c #8BA789",
"'. c #8EBC8D",
"]. c #BEA392",
"[. c #B1AA94",
"{. c #CBAF89",
"}. c #DFA784",
"|. c #CBBC8C",
" X c #CBB38A",
".X c #D3B48C",
"XX c #D5BB8E",
"oX c #DBB58C",
"OX c #D6B790",
"+X c #D4BA92",
"@X c #DABB93",
"#X c #E8AA85",
"$X c #F5AC82",
"%X c #F8AF84",
"&X c #F4B58B",
"*X c #E6BB93",
"=X c #EEB588",
"-X c #B1C69D",
";X c #C5C389",
":X c #D3C392",
">X c #D4C68C",
",X c #E6C89B",
"<X c #F1C79C",
"1X c #EECF90",
"2X c #DCC7AA",
"3X c #DED5B4",
"4X c #ECCFA3",
"5X c #E3C7AA",
"6X c #E5C9A7",
"7X c #FBC6AC",
"8X c #EED1A5",
"9X c #EFD2A8",
"0X c #F1D2A6",
"qX c #F9CCB2",
"wX c #EFDAB9",
"eX c #F1DBBC",
"rX c #F3D7B8",
"tX c #F2DEC0",
"yX c #F4E4CC",
"uX c #F5E6D1",
/* pixels */
"uXrXqX7X7XqXrXeXyX3X-X'.'.'.'.'._._._._._.`._.[.3XwXqXqX7X7XrXyX",
"tX<X&X%X$X=X*X,X>X;XI.6.6.6.6.6.5.5.5.5.5.-. .$.y.|.=X$X$X=X<XeX",
"tX<X&X$XJ.J.J.G.i.I.W.(.(.(.(.(.R.R.(.R.R.Y.7.} $.8.P.$XL.#X,XrX",
"eX,X#XM.c.M.G.G.i.U.E.!.~.~.~.Q.Q.Q.~.!.!.Y.p.7.1.8.m.M.v.m.*XrX",
"eX@X9.Z M 9.oX1X^.E.x.z.z.d.d.d.d.d.d.d.f.x.E.^.>X{.9.D M T .XrX",
"tXoXK o O K }.1X/.T.>.a.C.).W I I g.B.B.W f.x./.1XoX! # . F  XrX",
"tXOXT @ o D G.=XT.>.;.N.5X6X}.b.b.}.5X5XG.:.f.H.P.#XR & X F {.wX",
"eXOXT % @ P V.L.k.;.;.V.2X5X*XS.S.#X5X2XG.s.C ~ K.K.W & X F {.wX",
"tX@XR x & U A.L.l.;.h.v.w.).V.$X$X#Xe.w.v.h.s.a.K.K.W x o F {.wX",
"eX@Xe.H M P c.N.s.s.Z.M.E T c.C.C.c.Y Y v.Z.l.s.h.n.P m D w.OXwX",
"yX,X@XF.H m A P V j.A.J.D.c.E Z Z H c.V.J.L.l.C V D m D e.+X,XeX",
"eX0X8XoXT 7 @ 5 N ~ A.%X%XD.S     l M.$X$XL.l.V b # % Y .X8X8XrX",
"eX0X0X@XR z & v N I N.$X$XV.S     l B.$X$XN.j.V b & 5 Y .X8X8XrX",
"tX0X8X@XT & z b n P 3.N.J.V.E e l U C.S.V.c.P N b x & H .X4X8XrX",
"tX0X8XOXJ # z x 5 r B 4.M.S.v.c.c.v.D.N.4.h q 5 z z # F {.8X8XwX",
"tX0X0X>Xr.S m 5 3 1 > $.4.m.n.n.c.n.v.3.,., = 3 5 m S 9.OX8X8XeX",
"eX8X8X6X@X).H 6 u > ( ..-.2.,.,.,.,.,.k s : < t 9 D e.+X4X8X8XwX",
"eX8X8X9X4XOXQ 8 p / ' [ [ ' ] ) / / / / ^ : : p 8 H .X<X8X8X8XwX",
"eX0X4X8X0XoXJ 8 / ] [ [ [ { ` ` _ _ ] ( ^ : : ; 3 F  X0X8X8X8XwX",
"tX0X8X8X8XXX<.t ) [ [ [ o.o.o.o.o.o.o.O.) ^ : < = G  X4X9X8X9XwX",
"eX8X8X0X8XXX<., _ [ [ o.@.h h h h h h k | ( ^ : - &.|.,X0X8X8XwX",
"tX8X8X8X8XXX1.i | o.o.@.j c M g q 6 6 r k | i p p <.|.8X8X8X8XeX",
"eX8X9X9X8XXX2.g g h h f c r k  .a d 0 c j h g 9 8 K  X8X8X8X8XeX",
"tX8X8X8X8XoX9.f f f w 0 x q @.| i u 0 x 0 0 0 9 9 K XX8X8X8X8XwX",
"yX8X8X0X8X:Xt. . . .a d 6 6 j h g w c 6 d y y y u <.|.4X8X8X8XwX",
"eX8X8X0X8X:Xt.' ] ' ( s d j f q 0 0 0 8 y > ^ : ^ *.|.4X0X8X8XwX",
"eX0X8X8X8X|.=.( _ ] ' X.O. . . .a y u y , ^ ( _ ` =.>X8X0X8X0XwX",
"eX0X8X8X8X:Xy.$.#.X.X.) X.#.=.=.*.$.s ; < , ) #.-.t.:X8X8X8X0XrX",
"tX8X8X8X8X,X:Xu.&.t t t ; &.u.|.|.u.G 1 2 = 1 %.y.>X,X8X0X8X8XrX",
"tX8X8X8X8X8X4X|.J + + + + J +X4X0X@XQ # o + + F |.4X0X8X8X8X8XrX",
"tX8X8X8X8X9X9XOXT % $ $ % T OX9X9X+X9.* $ % $ H .X8X8X8X8X8X8XwX",
"yXeXrXrXeXeXwX5X].q.q.q.q.).2XeXeX2X).).q.q.q.).2XwXeXeXwXrXeXyX"
};
