/* XPM */
static char *PL1714054053[] = {
/* columns rows colors chars-per-pixel */
"32 32 225 2 ",
"   c #3F310C",
".  c #4E2916",
"X  c #582B19",
"o  c #5D321E",
"O  c #54301A",
"+  c #4D3318",
"@  c #62311E",
"#  c #573E2A",
"$  c #6A3B26",
"%  c #793B26",
"&  c #763A26",
"*  c #3A4813",
"=  c #3E5B1D",
"-  c #356019",
";  c #2E6F22",
":  c #366D23",
">  c #3A6A23",
",  c #2D7A29",
"<  c #357026",
"1  c #3A7628",
"2  c #474E1D",
"3  c #4A441A",
"4  c #42521C",
"5  c #48501D",
"6  c #59471F",
"7  c #4E4A26",
"8  c #594C24",
"9  c #495520",
"0  c #555626",
"q  c #594E32",
"w  c #7B412B",
"e  c #7A4727",
"r  c #69562A",
"t  c #79582C",
"y  c #754B34",
"u  c #6F562A",
"i  c #496726",
"p  c #536827",
"a  c #45782A",
"s  c #4B7C31",
"d  c #5A6E39",
"f  c #73682B",
"g  c #687A2A",
"h  c #78752B",
"j  c #6B6D38",
"k  c #697C36",
"l  c #767D3D",
"z  c #6F6434",
"x  c #796849",
"c  c #6F7C48",
"v  c #803C27",
"b  c #86432C",
"n  c #87482E",
"m  c #8F502F",
"M  c #8C4B33",
"N  c #834938",
"B  c #84533B",
"V  c #915236",
"C  c #A15D2C",
"Z  c #996C32",
"A  c #877D39",
"S  c #937230",
"D  c #B86E2E",
"F  c #BB762D",
"G  c #AC6B35",
"H  c #A36A34",
"J  c #B46D32",
"K  c #B56E35",
"L  c #A67939",
"P  c #B67034",
"I  c #BB7331",
"U  c #A9742C",
"Y  c #CA7A2C",
"T  c #C3752E",
"R  c #CB7D32",
"E  c #C37836",
"W  c #8A5B42",
"Q  c #97664B",
"!  c #8A7443",
"~  c #997948",
"^  c #837C57",
"/  c #9A755A",
"(  c #9B7859",
")  c #906C51",
"_  c #B67141",
"`  c #B97641",
"'  c #A97D5B",
"]  c #B3795A",
"[  c #AD6E50",
"{  c #C37C48",
"}  c #C67F53",
"|  c #1D882C",
" . c #2B832C",
".. c #2B8B2E",
"X. c #26882B",
"o. c #35852E",
"O. c #3D8C33",
"+. c #2E9834",
"@. c #389A37",
"#. c #3D9C3A",
"$. c #359736",
"%. c #2C8F30",
"&. c #35A139",
"*. c #38A039",
"=. c #448D34",
"-. c #548D36",
";. c #419B3B",
":. c #459739",
">. c #58963A",
",. c #4C822D",
"<. c #658636",
"1. c #6C8A3C",
"2. c #5D9244",
"3. c #788542",
"4. c #7B9D58",
"5. c #709149",
"6. c #56A346",
"7. c #7BAA5B",
"8. c #848836",
"9. c #A4802A",
"0. c #D0813A",
"q. c #86924D",
"w. c #879C5B",
"e. c #90934F",
"r. c #AC8A5A",
"t. c #B68857",
"y. c #A78D51",
"u. c #81AC5E",
"i. c #8E8460",
"p. c #AA876D",
"a. c #B48565",
"s. c #B48B6A",
"d. c #B98464",
"f. c #B99A77",
"g. c #A78C6C",
"h. c #82AD60",
"j. c #87A762",
"k. c #9EA56C",
"l. c #96B36D",
"z. c #98B36E",
"x. c #9FB672",
"c. c #B7A17A",
"v. c #AEBA7C",
"b. c #B0AD7A",
"n. c #C8874A",
"m. c #D28343",
"M. c #D88A49",
"N. c #C58355",
"B. c #D98D56",
"V. c #DA9558",
"C. c #E09053",
"Z. c #C78361",
"A. c #C98C64",
"S. c #CC946C",
"D. c #C39765",
"F. c #D8956A",
"G. c #DC9A74",
"H. c #D89975",
"J. c #D68B68",
"K. c #E39A6E",
"L. c #E6986A",
"P. c #E69C74",
"I. c #E99E76",
"U. c #ED9F79",
"Y. c #DCA676",
"T. c #CDA774",
"R. c #E4A179",
"E. c #EDA37A",
"W. c #E9A677",
"Q. c #F2A97E",
"!. c #F1A77B",
"~. c #E0A56D",
"^. c #A69C9A",
"/. c #B49F9B",
"(. c #B9BC81",
"). c #BDB182",
"_. c #B7A29E",
"`. c #BAADA5",
"'. c #CCAA86",
"]. c #C5A983",
"[. c #C9B588",
"{. c #D3B48D",
"}. c #DCB38B",
"|. c #DDBE95",
" X c #D6BA92",
".X c #D8AD80",
"XX c #E8AA85",
"oX c #F4AB81",
"OX c #F9AE84",
"+X c #E6BC8D",
"@X c #E7B088",
"#X c #F5B489",
"$X c #F8B489",
"%X c #E5BA93",
"&X c #F0BB91",
"*X c #C8B5A8",
"=X c #DABFA4",
"-X c #CBC48E",
";X c #CCC490",
":X c #D5C895",
">X c #D9C995",
",X c #DEC199",
"<X c #D7C998",
"1X c #DACA99",
"2X c #D6C393",
"3X c #E9C293",
"4X c #ECC599",
"5X c #E3CC9D",
"6X c #E7C599",
"7X c #F2C599",
"8X c #DFD0BD",
"9X c #DCC4AA",
"0X c #E7CFA1",
"qX c #EBCDA2",
"wX c #EED1A5",
"eX c #EFD2A8",
"rX c #F0D1A5",
"tX c #E8D6BD",
"yX c #F2DCBD",
"uX c #F0D1B4",
"iX c #EACEB3",
"pX c #EFDBC5",
"aX c #F5E1C6",
"sX c #F5E2C8",
"dX c #F7E9D7",
/* pixels */
"sXyXyXyXyXyXyXyXyXyXyXyXyXyXyXyXyXyXyXyXyXyXyXyXyXyXyXyXyXyXyXdX",
"yXrXwXwXwXwXwXrXwXwXwXrXwX5X>X-X-X-X-X-X;X>XwXeXwXeXwXwXrXrXrXaX",
"yXeXwXwXwXwXwXwXqXwXrXrXwX;Xx.u.h.7.7.7.h.v.>XwXwXwXwXwXrXrXrXaX",
"yXeXwXwXwXwXwX4X3X3X+X+X3XT.e.>.*.&.&.&.*.h.(.-X;X:XwXwXrXrXrXaX",
"yXwXwXwXwXrXwX3XY.V.V.V.V.n._ 8.>.*.@.&.*.6.7.7.j.v.1XeXeXwXeXaX",
"yXwXwXwXwX4X3XY.M.Y Y Y Y T K H 8.>.:.+.+.+.+.+.@.7.(.:XwXwXeXaX",
"yXwXwXwXwX3X~.M.E P J I P K G G 9.8.,.o.o.O.$.$...>.7.v.1XeXeXaX",
"yXwXrXwXwX5XY.V.P J D D I P G G P H S l e.q.>..., X.#.7.(.<X0XaX",
"yXwXrXrXrXwX4X.Xt.I R 0.R R T J G H U t.H.D.3.o., ..@.6.7.v.5XaX",
"yXrXrXwXeXrXwX+XS.A.Y.W.L.R E K G _ n.F.W.~.y.g a  .%.+.;.z.<XaX",
"yXwXwXwXeXrXrX%X.X@XuXeXXX} { Y K N.L.Q.Q.W.n.9.g  . ...*.l.1XaX",
"yXwXwXwX4X4X7X&XXX@X9X=XXXL.C.{ E B.!.$XQ.L.M.F S g a | ;.l.<XaX",
"yXwXwX6X@XXX$X$XoXH.p.p.H.P.L.B.{ C.!.Q.U.J.{ I 9.9.g  .;.z.1XsX",
"yXwXwX3XH.G.@X$X$XG.' ] H.XXU.L.M.C.U.E.F.} _ I 0.n.r.u.6.l.<XsX",
"yXwXwX}.d.A.|.7X$XoXU.I.XXoXU.L.M.M.L.L.} _ P D 0.V.{.v.7.z.<XsX",
"yX0X Xf.( d.|.7X#XOXOXOXoXoXoXL.M.E n.t.L Z U D 0.~.4X1Xv.(.1XsX",
"pX|.s.) W s.=X4XXXE.oXoXE.U.U.J.{ G A k g h H G K S.5X0X1X1XwXaX",
"pX{./ % M ] }.XXS.Z.F.G.U.U.U.K.A.y.5.|  .g S C H r.T.:X0XeXwXsX",
"yX{./ % M ] .XS.[ W W ] P.oXoXoXW.D.5.+.@.<.m m m ! u.v.1XwXwXsX",
"yX{.' v v [ J.} y   7 ~ G.OXOX$X$XY.e.=.-.k f b b t k k.>XeXwXaX",
"yX{./ % M [ J.Z.B * > ! S.!.oXOXOXH.! 0 f n n b b n f r.2XwXwXsX",
"yX{./ % M ] G.S.W * : 3.t.F.E.oXQ.S.W X & e b b b % w ( ].>XwXsX",
"pX X/ % M d.{.'.) 9 < s 1.r.F.U.P.N.W . X $ v b n & $ j 7.v.1XaX",
"tX X/ % M s.|. Xf.^ d ; , 3.r.A.D.[ y . . @ & % $ e 8 > #.l.1XsX",
"yX{./ w M s.%XqX|.).x = ; s k 3.l j 8 . . . o o o 7 i , #.l.2XaX",
"yX|.f./ W s.|.0X;Xc.x + = i i p p p 7 9 9 9 9 9 9 a o. .=.w.].8X",
"yXqX|.]./ p.|.2Xk.c 8 + 3 8 u t t r i 1 < < < 1 O.#.@.=.p z / *X",
"yXqXeX|.f.f.].f.c - 4 4 4 0 f f f g 1 X.X.X.X.%.#.#.=.s 8 & v /.",
"yXrXqXqX,X'.s.) q 4 > : : a :.>.>.:.;.;.;.;.#.#.#.=.i 8 % w N _.",
"yXeXqXeXwX2Xf./ y # 9 : > 5.j.l.l.l.l.x.l.l.l.j.2.a 7 @ % Q a.*X",
"aXrXrXrXrXqX%X]./ y q 7 q i.[.<X<X<X1X1X<X<X<X).^ q q $ N ' {.tX",
"dXaXaXsXsXsXsX8X*X/.^.^.^.*XpXsXsXsXsXsXsXsXpX8X`.^.^.^._.*XpXdX"
};
