/* XPM */
static const char *UFI_[] = {
/* columns rows colors chars-per-pixel */
"32 32 220 2 ",
"   c #383E0E",
".  c #4E2B16",
"X  c #542C19",
"o  c #5B2E1B",
"O  c #4D391A",
"+  c #5C341D",
"@  c #52371C",
"#  c #6A341E",
"$  c #602D1A",
"%  c #6D3923",
"&  c #7A3A25",
"*  c #7B3D28",
"=  c #703320",
"-  c #345A18",
";  c #2C671C",
":  c #36661E",
">  c #3A6923",
",  c #297C27",
"<  c #367427",
"1  c #4C471D",
"2  c #45521E",
"3  c #57481F",
"4  c #584C23",
"5  c #4A5721",
"6  c #5A5625",
"7  c #595537",
"8  c #524C30",
"9  c #794227",
"0  c #6D5829",
"q  c #7C5C2E",
"w  c #7A542D",
"e  c #7D4B36",
"r  c #7D4D39",
"t  c #6A4D33",
"y  c #486726",
"u  c #546827",
"i  c #45782B",
"p  c #5E7E3F",
"a  c #6D792A",
"s  c #78722D",
"d  c #637F39",
"f  c #687A35",
"g  c #727D39",
"h  c #6D672F",
"j  c #717541",
"k  c #813F27",
"l  c #83432B",
"z  c #8B4A2E",
"x  c #86563D",
"c  c #874B33",
"v  c #A15F2F",
"b  c #A25F32",
"n  c #9C6D32",
"m  c #8C793A",
"M  c #92752D",
"N  c #A87E2A",
"B  c #BE7C2D",
"V  c #AC6A35",
"C  c #A26C33",
"Z  c #B36C34",
"A  c #B96E31",
"S  c #B26E3B",
"D  c #A67537",
"F  c #BA7132",
"G  c #B67035",
"H  c #B46D2F",
"J  c #CC7B2D",
"K  c #C2752F",
"L  c #C47834",
"P  c #CB7C30",
"I  c #C47731",
"U  c #845543",
"Y  c #915E43",
"T  c #A25F44",
"R  c #8A6443",
"E  c #996349",
"W  c #96674B",
"Q  c #9A6F52",
"!  c #897859",
"~  c #997558",
"^  c #9B7A4F",
"/  c #A46447",
"(  c #A87C48",
")  c #BB7848",
"_  c #A47356",
"`  c #A87658",
"'  c #AB7455",
"]  c #AA7E65",
"[  c #C67E48",
"{  c #2C842C",
"}  c #25892B",
"|  c #28892C",
" . c #33852D",
".. c #3A8B32",
"X. c #3C9536",
"o. c #349A36",
"O. c #3B9D3A",
"+. c #369636",
"@. c #2B9030",
"#. c #36A139",
"$. c #3AA13A",
"%. c #478B34",
"&. c #568834",
"*. c #469C3D",
"=. c #499D3D",
"-. c #459139",
";. c #5A973D",
":. c #46822C",
">. c #648233",
",. c #75833C",
"<. c #62993B",
"1. c #559F46",
"2. c #738347",
"3. c #739852",
"4. c #54A548",
"5. c #7BAA5B",
"6. c #868737",
"7. c #C8813F",
"8. c #828C49",
"9. c #879955",
"0. c #918B53",
"q. c #B2854A",
"w. c #A98555",
"e. c #BB885E",
"r. c #A89154",
"t. c #928563",
"y. c #A98666",
"u. c #A98C73",
"i. c #B18F71",
"p. c #B69473",
"a. c #B98062",
"s. c #8CAA65",
"d. c #92A966",
"f. c #8EB167",
"g. c #8FB069",
"h. c #90B169",
"j. c #9FB672",
"k. c #BCA77D",
"l. c #A1B673",
"z. c #AEB97B",
"x. c #A4B776",
"c. c #B2BC7E",
"v. c #A6A86E",
"b. c #C88449",
"n. c #DB8B4D",
"m. c #D58545",
"M. c #DF914F",
"N. c #C9865A",
"B. c #DC8D58",
"V. c #D5965B",
"C. c #DA965A",
"Z. c #C98963",
"A. c #D28D6A",
"S. c #D38A64",
"D. c #C59062",
"F. c #CA9768",
"G. c #DD946C",
"H. c #D99866",
"J. c #CA9673",
"K. c #D89974",
"L. c #E3966B",
"P. c #E7996B",
"I. c #EA9E74",
"U. c #EB9F78",
"Y. c #E49B74",
"T. c #C8A879",
"R. c #E3A276",
"E. c #E2A47F",
"W. c #EDA47B",
"Q. c #EAA475",
"!. c #F3A97F",
"~. c #F2A47D",
"^. c #E3B17E",
"/. c #B39B96",
"(. c #BABA83",
"). c #AFA7A6",
"_. c #AEA9A6",
"`. c #B9AAA7",
"'. c #CAAA85",
"]. c #D8AA83",
"[. c #C7B48B",
"{. c #D3B28C",
"}. c #D9B688",
"|. c #D6B991",
" X c #E9AC86",
".X c #F4AB81",
"XX c #F9AE84",
"oX c #E6B48B",
"OX c #F9B085",
"+X c #F5B68B",
"@X c #E0BE90",
"#X c #C7B7AC",
"$X c #C7B6AB",
"%X c #D4C695",
"&X c #DCCB9B",
"*X c #D7C896",
"=X c #E7C193",
"-X c #E1C49C",
";X c #EBC79B",
":X c #E3CA9E",
">X c #EDC99D",
",X c #EAC293",
"<X c #F0C49A",
"1X c #DEC9A6",
"2X c #D4C2B6",
"3X c #E7CDA1",
"4X c #EBCDA3",
"5X c #E2C4A3",
"6X c #F2CFAF",
"7X c #EED1A5",
"8X c #EFD4A9",
"9X c #F0D1A5",
"0X c #F1D4AB",
"qX c #E1CBB6",
"wX c #E9D8C4",
"eX c #F3DFC4",
"rX c #F4E0C4",
"tX c #F5E4CD",
"yX c #F7EAD8",
"uX c #F9EFE3",
/* pixels */
"yXrXeXeXeXeXeXrXeXeXeXeXeXeXeXrXrXeXeXrXeXeXrXrXeXeXrXeXrXeXrXyX",
"rX9X9X7X7X7X7X7X7X3X*X%X%X%X%X%X%X*X7X7X7X7X7X7X7X7X7X7X7X9X8XtX",
"rX7X7X7X7X7X7X9X9X*Xz.g.g.h.h.f.h.(.&X7X7X7X7X7X7X7X7X7X7X7X7XrX",
"rX7X7X7X7X3X&X%X%X(.5.$.$.$.$.=.<.v.}.,X=X=X=X;X4X7X7X7X7X7X8XtX",
"eX7X7X7X7X*Xz.f.f.5.4.#.#.#.#.;.6.q.V.H.H.C.H.^.>X8X7X7X7X7X8XtX",
"eX7X9X4X*X(.5.O.o.O.o.o.o.*.<.6.D A I J J J P V.oX;X4X7X7X7X8XtX",
"eX9X7X*Xz.5.-.@.o.o...{  .>.m D V Z A A F A F [ V.^.>X7X7X7X8XtX",
"rX3X*X(.5.+.{ { @.;.8.8.g s C Z V Z A F F H Z ) V.^.;X7X9X7X8XtX",
"eX&Xz.5.4.o.{ ,  .8.F.F.( n V V V A P P P K G D.}.;X4X9X9X9X8XtX",
"rX%Xg.O.o.@.{ i a r.R.W.S.) S V A L m.C.R.K.N.J.;X7X7X7X9X9X8XtX",
"eX%Xg.o.| { , a N V.Q..XW.H.) A I m.H.oX6X4X XE.>X7X7X7X7X7X8XtX",
"eX%Xf.+.} i a M B n.Q..XXXQ.b.L m.B.L.oX1X5X X X<X<X;X>X4X7X8XtX",
"eX%Xh.O.{ a N B F [ G.~..XQ.n.m.B.L.Y.J.u.i.E.OX+X+X XoX>X7X8XtX",
"eX%Xf.1.3.r.b.J F ) N.L.W.I.n.n.P.U.U.A.' a.W.+X+X XG.].;X7X8XtX",
"eX%Xg.5.(.}.V.J A S ) N.G.L.n.M.Q..X.XW.Y.R..X+X<X}.e.J.-X7X8XtX",
"eX&Xc.c.*X=XH.I A C n ( e.N.7.n.I.!..X.XXXXX.X+X>X{.` ` '.-X8XtX",
"eX3X:X&X3X@XD.Z Z n s f g m D b.G.I.U.W..X!.W.oX;X{._ x ~ k.5XtX",
"eX7X9X4X%XT.w.b v M &.|  .,.q.S.Y.W.W.Y.K.A.Z.K.oX]._ k e i.-XtX",
"eX7X9X*Xx.9.m z z s &.o.+.9.K.W..X.X!.K.' x x ` K.A./ l r i.-XtX",
"rX9X7X%Xd.f q l l q >.&.%.0.R.OXOXXX.XK.R   @ E S.S.T l r i.-XtX",
"eX7X7X|.y.q l l l c q 0 6 ^ R.OXXX.XI.D.j - 1 E A.S./ l r i.-XtX",
"eX3X%Xk.Q * k l l l * # o E G.!.!.R.F.w.d ; 1 Q K.J./ l r i.-XtX",
"eX&Xx.3.h % * l l 9 # X X Y A.I.Y.F.0.d i : 4 y.{.]._ l r i.-XtX",
"rX%Xf.+.: 4 % & * % o . X x w.D.e.w.d , > j t.'.-X{._ k e i.-XtX",
"eX%Xf.X., y 4 + + + X . . 6 f j g d i ; 5 ! [.:X4X{._ l x i.-XtX",
"qXk.9... . .i y 5 2 2 2 2 5 u u u y y 2 @ ! (.*X4X{._ R y.'.3XtX",
"$XW 0 y %.X.X...< < < < < u 0 w w 0 3 O @ 7 2.v.*X{.~ y.{.:X8XtX",
"/.& = 6 i -.O.O.@.} } } | :.f s s h 5 2 2 - > 0.k.T.p.'.:X7X8XtX",
"/.c l 9 4 y -.O.*.*.*.=.*.=.1.1.;.&.< < < > 1 t Q p.|.3X7X7X8XtX",
"#Xy.E * $ 1 i 3.d.l.l.l.l.l.j.l.j.s.p : > 5 4 U y.'.:X7X7X7X7XtX",
"wX{.] U t 8 7 t.[.1X&X&X&X&X&X&X&X(.! 7 7 t r y.|.3X7X8X8X7X0XtX",
"yXwX#X`.`.).).#XwXtXtXtXtXtXtXtXtXwX$X_.).).`.2XwXtXtXtXtXtXtXuX"
};
