/* XPM */
static const char *UFU_[] = {
/* columns rows colors chars-per-pixel */
"32 32 197 2 ",
"   c #5A2D1A",
".  c #4C3A17",
"X  c #602D1A",
"o  c #69351F",
"O  c #6A3721",
"+  c #7B3B26",
"@  c #783623",
"#  c #3C5A1C",
"$  c #3B6B25",
"%  c #2F7F28",
"&  c #347425",
"*  c #367C2B",
"=  c #47511C",
"-  c #564E20",
";  c #4A5522",
":  c #4A5C23",
">  c #465B20",
",  c #5A5E27",
"<  c #7E412B",
"1  c #755B2C",
"2  c #76572B",
"3  c #714D37",
"4  c #705631",
"5  c #6C4E2D",
"6  c #466225",
"7  c #486827",
"8  c #506E2A",
"9  c #596428",
"0  c #437E2E",
"q  c #4A782B",
"w  c #53792E",
"e  c #467F30",
"r  c #567C34",
"t  c #6E642D",
"y  c #72632D",
"u  c #647C2C",
"i  c #68752D",
"p  c #757928",
"a  c #796531",
"s  c #786932",
"d  c #6A7C30",
"f  c #6B6A31",
"g  c #833E27",
"h  c #84412A",
"j  c #89563A",
"k  c #82732D",
"l  c #81782B",
"z  c #9C6D32",
"x  c #897C33",
"c  c #9B7334",
"v  c #957936",
"b  c #917C29",
"n  c #A67A2B",
"m  c #BA7D2B",
"M  c #B37E2D",
"N  c #A06C33",
"B  c #AA6B35",
"V  c #B46D34",
"C  c #A27E32",
"Z  c #BA7233",
"A  c #BB7F36",
"S  c #C77A2F",
"D  c #CE7D2D",
"F  c #81654D",
"G  c #9C6B4F",
"H  c #8C6F54",
"J  c #9A6C52",
"K  c #827C54",
"L  c #997759",
"P  c #867D44",
"I  c #A76B4D",
"U  c #AF6E50",
"Y  c #A17256",
"T  c #A97659",
"R  c #B27D49",
"E  c #C27F48",
"W  c #2C832C",
"Q  c #2E8B2E",
"!  c #32862E",
"~  c #39872E",
"^  c #2E8730",
"/  c #348D31",
"(  c #3B8C30",
")  c #2F9332",
"_  c #2F9937",
"`  c #349335",
"'  c #359936",
"]  c #389936",
"[  c #369C39",
"{  c #3A9C39",
"}  c #3A9335",
"|  c #36A139",
" . c #3CA13B",
".. c #35A036",
"X. c #438D32",
"o. c #498E36",
"O. c #548C36",
"+. c #598E36",
"@. c #5C8636",
"#. c #429336",
"$. c #4C9334",
"%. c #449738",
"&. c #5C9438",
"*. c #559138",
"=. c #6B842B",
"-. c #73832D",
";. c #668A33",
":. c #629539",
">. c #5A9744",
",. c #7C8747",
"<. c #7D8855",
"1. c #51A346",
"2. c #79A95A",
"3. c #6FA955",
"4. c #A4812A",
"5. c #BF8138",
"6. c #B98029",
"7. c #84904E",
"8. c #868556",
"9. c #8C8654",
"0. c #829F5D",
"q. c #968E4E",
"w. c #A78948",
"e. c #B9804B",
"r. c #82A75D",
"t. c #AF9F6B",
"y. c #AE9473",
"u. c #BB9574",
"i. c #B29877",
"p. c #BF9A66",
"a. c #82AC61",
"s. c #8EA861",
"d. c #8CB066",
"f. c #8FB069",
"g. c #ABA16E",
"h. c #BFA47D",
"j. c #A4B775",
"k. c #B0BA7D",
"l. c #ACAA79",
"z. c #CC8A4B",
"x. c #C28149",
"c. c #D28E51",
"v. c #CD9668",
"b. c #DD9969",
"n. c #C59170",
"m. c #E89D67",
"M. c #E29D75",
"N. c #C5A17D",
"B. c #D7A778",
"V. c #E0A67C",
"C. c #E9A376",
"Z. c #B1968F",
"A. c #B09490",
"S. c #87BA86",
"D. c #88BA87",
"F. c #89BA88",
"G. c #BCAA81",
"H. c #BAB681",
"J. c #CCBB8D",
"K. c #CFB489",
"L. c #D8B58B",
"P. c #C2AB9D",
"I. c #D3B790",
"U. c #DDBD95",
"Y. c #D7BE95",
"T. c #C4A682",
"R. c #F3AD82",
"E. c #EFB488",
"W. c #F6B98D",
"Q. c #F4B387",
"!. c #F3BE93",
"~. c #C7B0A0",
"^. c #ABC397",
"/. c #CDC38F",
"(. c #CBC490",
"). c #D3C793",
"_. c #D9C496",
"`. c #DDC098",
"'. c #D6C895",
"]. c #E6CB9E",
"[. c #EBCA9D",
"{. c #E0C097",
"}. c #F3C196",
"|. c #F1CA9E",
" X c #D8D2AE",
".X c #DCD4B0",
"XX c #E7CCA0",
"oX c #EACDA3",
"OX c #F1CDA1",
"+X c #EED1A5",
"@X c #EFD2A8",
"#X c #F0D1A5",
"$X c #F3DCBD",
"%X c #E5CFB8",
"&X c #F3DEC2",
"*X c #F3E1C6",
"=X c #F5E6D2",
/* pixels */
"=X$X$X$X$X$X$X$X$X X^.S.D.S.S.S.D.F.D.S.D.^..X$X$X$X$X$X$X$X$X=X",
"$X+X+X+X+X+X+X].).k.3. .|  .{  . . . .|  .2.H.'.XX+X+X+X+X+X+X&X",
"$X+X+X+X+X+X+X).j.3.1. . . . . . . . . . .1.2.j.'.+X+X+X+X+X#X&X",
"$X+X+X+X+X+X+X/.r.| |  . . . . . . . . . .|  .f.).+X+X+X+X+X#X&X",
"$X+X+X+X+X+X+X/.r.| |  . . . . . . . . . .|  .d.).+X#XoX+X+X+X&X",
"$X+X+X+X#X+X+X/.a. . . . . . . . .{ ] ] { |  .d.).+X#X#X+X@X+X&X",
"$X+X+X+X+X+X+X/.a.| |  . . . . . .{ / / { .. .d.).+X+X#X+X@X+X&X",
"$X+X+X+X+XOX[.K.r._ [  . . . . . .{ / / ` ) ' s.L.|.OX@X+X#X+X&X",
"$X+X+X+X+X|.!.B.7./ '  . . . . . . .{ } / W ! q.B.!.|.+X@X+X+X&X",
"$X+X+X+X+X|.W.B.w.=.$.'  . . . . .{ ' ) W q p w.C.W.|.+X+X+X+X&X",
"$X+X+X+X+X|.W.C.z.4.=./ '  . . . .] / W * p M c.C.W.|.+X+X+X+X&X",
"$X+X+X+X#X|.}.Q.m.z.v @.%. .| [ ' X.r i i v z.m.Q.}.OX+X+X#X+X&X",
"$X+X+X+X#XOX|.}.R.b.R x &. . .] / u x z z e.b.Q.}.OX+X+X+X+X+X$X",
"$X+X+X#X#X].U.L.B.v.E C ;.%.:.;.d k N V Z x.v.L.[.+X+X#X+X+X+X&X",
"$X+X+X+X+XU.u.L 9.w.5.M -.;.x c c N B Z S A w.g._.+X#X#X+X+X+X&X",
"$X+X+X].U.N.G 1 w -.4.n l k N V Z Z Z Z m n p 8.h.U.].#X+X+X+X&X",
"$X@X+XU.u.G j y O.$.=.l c z B V S D D m b p y j J u.{.+X#X+X+X&X",
"$X+X+XI.Y @ + f $.' / @.x v c N M 6.6.4.=.w 1 g h T L.|.#X+X+X&X",
"$X#X+XL.Y @ o 9 #.{ ' %.&.;.u i p p p ;.$.O.a h h U V.!.OX+X+X&X",
"$X#X+XU.u.J 5 ; 0 #.{  . .' / W ^ ^ Q ` { O.t + g U M.W.|.+X+X&X",
"$X#X+XXXU.h.F . ; q #. . .{ { ' ' ' ' '  .o., O < U M.W.|.+X#X&X",
"$X#X#X#X+XJ.8.; = 6 e o.+.+.*.+.+.+.+.+.o.0 6 4 I n.C.W.|.+X+X&X",
"$X#X+X#X+X/.r.~ & $ 6 , y a a a a a a t , 6 $ P v.C.R.W.|.+X+X&X",
"$X+X+X#X+X/.a.' Q * 7 9 t s s a 1 2 2 5 - # & ,.p.V.E.}.|.+X+X&X",
"$X+X+X#X+X(.a.[ ' } #.o.*.*.*.O.w 8 8 7 $ & & r ,.t.U.|.+X+X+X&X",
"$X+X+X+X+XJ.0.( ( X.X.#.{  .| ' Q W ! ^ ! % & r <.l._.+X#X+X+X&X",
"$X#X+X+XoXJ.8.> : : : q #. . .{ { ] ' { ] ~ 7 K G._.XX+X+X+X+X&X",
"$X+X+X+XoXK.H   X     ; 0 >.2.f.d.2.>.( ( @.K i.`.+X+X+X+X+X+X*X",
"$X+X+X+X+XI.L + + O   . ; 8.T.'.).H.<.> > K G.`.XX#X+X+X+X+X+X*X",
"$X+X+X+X+XU.u.Y j + O 3 H i.`.+X+XY.y.L L i.`.+X+X+X+X#X+X#X+X&X",
"$X+X+X+X+XXXU.N.G g < L T.`.XX#X+XXXU.I.I.U.XX+X+X+X+X+X+X@X+X&X",
"=X&X&X&X&X&X&X%XP.A.Z.~.%X&X&X&X&X&X$X&X&X&X&X&X&X&X&X&X&X&X&X=X"
};
